<svg id="Mast" xmlns="http://www.w3.org/2000/svg" xmlns:xlink="http://www.w3.org/1999/xlink" viewBox="0 0 468 66.719"><defs><style>.cls-1{fill:none;}.cls-2{clip-path:url(#clip-path);}.cls-3{clip-path:url(#clip-path-2);}.cls-4{font-size:6.44px;}.cls-12,.cls-4,.cls-40{fill:#b21107;}.cls-13,.cls-4,.cls-40{font-family:Helvetica-ICPCPlain95, Helvetica;}.cls-5{fill:#ffb500;}.cls-6{fill:url(#New_Gradient_Swatch_9);}.cls-7{fill:url(#New_Gradient_Swatch_8);}.cls-8{fill:url(#New_Gradient_Swatch_6);}.cls-9{fill:url(#New_Gradient_Swatch_7);}.cls-10,.cls-13{fill:#fff;}.cls-11{fill:#4c6bb0;}.cls-13{font-size:10px;stroke:#fff;stroke-miterlimit:10;stroke-width:0.07px;}.cls-14{letter-spacing:0.003em;}.cls-15{letter-spacing:-0.004em;}.cls-16{letter-spacing:-0.001em;}.cls-17{letter-spacing:0.01em;}.cls-18{letter-spacing:0.002em;}.cls-19{letter-spacing:0.03em;}.cls-20{letter-spacing:0.004em;}.cls-21{letter-spacing:-0.007em;}.cls-22{letter-spacing:-0.011em;}.cls-23{letter-spacing:0.001em;}.cls-24{letter-spacing:0.004em;}.cls-25{letter-spacing:-0.008em;}.cls-26{letter-spacing:0.004em;}.cls-27{letter-spacing:-0.014em;}.cls-28{letter-spacing:-0.003em;}.cls-29{letter-spacing:0.002em;}.cls-30{letter-spacing:0.006em;}.cls-31{letter-spacing:0.008em;}.cls-32{letter-spacing:0.005em;}.cls-33{letter-spacing:0.001em;}.cls-34{letter-spacing:0.003em;}.cls-35{letter-spacing:-0.001em;}.cls-36{letter-spacing:0.01em;}.cls-37{letter-spacing:0.003em;}.cls-38{letter-spacing:-0.002em;}.cls-39{letter-spacing:-0.008em;}.cls-40{font-size:8px;}</style><clipPath id="clip-path" transform="translate(0 -5.281)"><rect class="cls-1" width="468" height="72"/></clipPath><clipPath id="clip-path-2" transform="translate(0 -5.281)"><rect class="cls-1" x="382.858" y="12.164" width="85.142" height="39.6"/></clipPath><linearGradient id="New_Gradient_Swatch_9" x1="395.363" y1="46.297" x2="415.629" y2="34.066" gradientUnits="userSpaceOnUse"><stop offset="0" stop-color="#f7fb23"/><stop offset="1" stop-color="#fe5c1d"/></linearGradient><linearGradient id="New_Gradient_Swatch_8" x1="399.633" y1="16.92" x2="418.13" y2="33.114" gradientUnits="userSpaceOnUse"><stop offset="0" stop-color="#f93452"/><stop offset="0.619" stop-color="#fc4f2e"/><stop offset="1" stop-color="#fe5c1d"/></linearGradient><linearGradient id="New_Gradient_Swatch_6" x1="400.818" y1="31.585" x2="389.856" y2="24.738" gradientUnits="userSpaceOnUse"><stop offset="0" stop-color="#6d3495"/><stop offset="0.017" stop-color="#703494"/><stop offset="0.469" stop-color="#b7277e"/><stop offset="0.793" stop-color="#e41f70"/><stop offset="0.957" stop-color="#f51c6b"/></linearGradient><linearGradient id="New_Gradient_Swatch_7" x1="400.619" y1="16.091" x2="389.916" y2="24.93" gradientUnits="userSpaceOnUse"><stop offset="0" stop-color="#f93452"/><stop offset="0.278" stop-color="#f82c5a"/><stop offset="1" stop-color="#f51c6b"/></linearGradient></defs><title>footer2019</title><g class="cls-2"><g class="cls-3"><text class="cls-4" transform="translate(427.409 21.814) scale(0.95 1)">icpc global<tspan x="0" y="6.612">programming</tspan><tspan x="0" y="13.225">tools sponsor</tspan></text><rect class="cls-5" x="422.459" y="12.823" width="0.99" height="27.72"/><path id="_Path_" data-name="&lt;Path&gt;" class="cls-6" d="M417.8,33.7a1.2,1.2,0,0,0-1.6-1.785v0L394.537,43.765a2.62,2.62,0,1,0,2.453,4.608h0c.064-.041.126-.084.186-.131l20.151-14.177c.122-.084.4-.3.471-.364l.005,0Z" transform="translate(0 -5.281)"/><path id="_Path_2" data-name="&lt;Path&gt;" class="cls-7" d="M417.83,31.974l0,0-16.48-16.186a2,2,0,0,0-3.473,1.349h0a1.992,1.992,0,0,0,.553,1.375h0l.008.007a2.022,2.022,0,0,0,.3.26l17.416,14.914,0,0a1.2,1.2,0,0,0,1.669-1.715Z" transform="translate(0 -5.281)"/><path id="_Path_3" data-name="&lt;Path&gt;" class="cls-8" d="M401.889,30.525c-.024-.019-10.17-8.034-10.379-8.16l-.009-.007v0A2.888,2.888,0,0,0,388.51,27.3h0l.009,0a2.9,2.9,0,0,0,.493.241c.1.039,11.731,4.862,11.731,4.862v0a1.11,1.11,0,0,0,1.145-1.884Z" transform="translate(0 -5.281)"/><path id="_Path_4" data-name="&lt;Path&gt;" class="cls-9" d="M399.88,15.134a1.986,1.986,0,0,0-1.178.388l-10.311,6.937-.06.04-.014.009h0a2.889,2.889,0,0,0,3.387,4.682h0a2.882,2.882,0,0,0,.464-.418l8.943-8.059,0,0a2,2,0,0,0,.771-1.573h0A2.007,2.007,0,0,0,399.88,15.134Z" transform="translate(0 -5.281)"/><rect id="_Path_5" data-name="&lt;Path&gt;" x="396.038" y="19.487" width="13.122" height="13.122"/><rect id="_Path_6" data-name="&lt;Path&gt;" class="cls-10" x="397.17" y="30.149" width="4.921" height="0.82"/><g id="_Group_" data-name="&lt;Group&gt;"><path id="_Path_7" data-name="&lt;Path&gt;" class="cls-10" d="M397.115,28.223l.382-.361a.433.433,0,0,0,.336.2c.147,0,.241-.1.241-.3V26.408h.59v1.357a.8.8,0,0,1-.211.6.806.806,0,0,1-.587.217A.873.873,0,0,1,397.115,28.223Z" transform="translate(0 -5.281)"/><polygon id="_Path_8" data-name="&lt;Path&gt;" class="cls-10" points="398.801 21.127 400.521 21.127 400.521 21.628 399.388 21.628 399.388 21.955 400.414 21.955 400.414 22.423 399.388 22.423 399.388 22.762 400.537 22.762 400.537 23.266 398.801 23.266 398.801 21.127"/><polygon id="_Path_9" data-name="&lt;Path&gt;" class="cls-10" points="401.296 21.647 400.658 21.647 400.658 21.127 402.531 21.127 402.531 21.647 401.889 21.647 401.889 23.266 401.296 23.266 401.296 21.647"/><path class="cls-10" d="M398.658,30.067a.5.5,0,0,0,.33-.477v-.006a.481.481,0,0,0-.137-.348.8.8,0,0,0-.584-.189h-1.1v2.139h1.1c.51,0,.81-.223.81-.59V30.59A.519.519,0,0,0,398.658,30.067Zm-.911-.544h.388c.174,0,.269.064.269.183v.006c0,.125-.1.186-.284.186h-.373Zm.742.99c0,.125-.1.2-.284.2h-.458v-.394h.452c.2,0,.29.076.29.192Z" transform="translate(0 -5.281)"/><path class="cls-10" d="M400.628,30.44a.678.678,0,0,0,.44-.66v-.006a.668.668,0,0,0-.189-.5.947.947,0,0,0-.7-.229h-1.011v2.139h.593v-.648h.263l.431.648h.681Zm-.153-.62c0,.156-.119.254-.318.254h-.394v-.516h.391c.2,0,.321.086.321.257Z" transform="translate(0 -5.281)"/><path class="cls-10" d="M402.333,29.031h-.571l-.907,2.154h.62l.153-.385h.828l.153.385h.636Zm-.532,1.308.241-.6.238.6Z" transform="translate(0 -5.281)"/><rect id="_Path_10" data-name="&lt;Path&gt;" class="cls-10" x="403.314" y="23.766" width="0.593" height="2.139"/><polygon id="_Path_11" data-name="&lt;Path&gt;" class="cls-10" points="404.053 23.766 404.606 23.766 405.486 24.896 405.486 23.766 406.073 23.766 406.073 25.905 405.556 25.905 404.64 24.731 404.64 25.905 404.053 25.905 404.053 23.766"/><path id="_Path_12" data-name="&lt;Path&gt;" class="cls-10" d="M406.11,30.868l.33-.394a1.108,1.108,0,0,0,.694.257c.162,0,.247-.055.247-.147v-.006c0-.092-.07-.137-.364-.208-.455-.1-.807-.232-.807-.669v-.006c0-.4.315-.684.828-.684a1.346,1.346,0,0,1,.88.284l-.3.419a1.05,1.05,0,0,0-.6-.211c-.144,0-.214.058-.214.137v.006c0,.1.073.141.373.208.489.107.794.266.794.666v.006c0,.437-.345.7-.865.7A1.5,1.5,0,0,1,406.11,30.868Z" transform="translate(0 -5.281)"/></g></g><path class="cls-11" d="M144.407,22.634a3.839,3.839,0,0,1-1.044-.136,2.712,2.712,0,0,1-.823-.373,1.865,1.865,0,0,1-.535-.561,1.351,1.351,0,0,1-.195-.713,1.467,1.467,0,0,1,.2-.755,2.085,2.085,0,0,1,.551-.611,2.587,2.587,0,0,1,.823-.407,3.473,3.473,0,0,1,1.019-.145,3.388,3.388,0,0,1,1.01.145,2.6,2.6,0,0,1,.815.407,2.092,2.092,0,0,1,.551.611,1.462,1.462,0,0,1,.2.755,1.351,1.351,0,0,1-.2.713,1.877,1.877,0,0,1-.535.561,2.721,2.721,0,0,1-.815.373A3.744,3.744,0,0,1,144.407,22.634Zm-1.528,3H146V42.833h-3.123Zm0,0H146V42.833h-3.123Z" transform="translate(0 -5.281)"/><path class="cls-11" d="M164.535,31.376h-2.97a5.148,5.148,0,0,0-1.239-2.668,4.008,4.008,0,0,0-3.106-1.066,4.293,4.293,0,0,0-4.175,2.72,10.241,10.241,0,0,0-.815,4.333,7.864,7.864,0,0,0,1.154,4.377,4.018,4.018,0,0,0,3.632,1.775,4.086,4.086,0,0,0,3.013-1.1,5.955,5.955,0,0,0,1.536-3.021h2.97a7.435,7.435,0,0,1-2.546,5.016,8.231,8.231,0,0,1-5.211,1.587,7.116,7.116,0,0,1-5.686-2.47,9.159,9.159,0,0,1-2.122-6.187,10.072,10.072,0,0,1,2.325-7.078,7.7,7.7,0,0,1,5.924-2.529,8.224,8.224,0,0,1,5,1.418Q164.145,27.9,164.535,31.376Z" transform="translate(0 -5.281)"/><path class="cls-11" d="M167.359,25.638h2.97V27.93a7.285,7.285,0,0,1,2-1.816,6.694,6.694,0,0,1,3.632-.968,6.993,6.993,0,0,1,5.245,2.249,8.92,8.92,0,0,1,2.155,6.425q0,5.635-3.106,8.062a7.263,7.263,0,0,1-4.583,1.528,6.511,6.511,0,0,1-3.446-.849,8.02,8.02,0,0,1-1.816-1.664v8.826h-3.055Zm12.882,8.453a9.126,9.126,0,0,0-.628-3.548,4.684,4.684,0,0,0-8.69.17A11.38,11.38,0,0,0,170.3,34.8a8.224,8.224,0,0,0,.628,3.395,4.342,4.342,0,0,0,4.345,2.682,4.443,4.443,0,0,0,3.556-1.7A7.8,7.8,0,0,0,180.242,34.092Z" transform="translate(0 -5.281)"/><path class="cls-11" d="M201.064,31.376h-2.97a5.148,5.148,0,0,0-1.239-2.668,4.008,4.008,0,0,0-3.106-1.066,4.293,4.293,0,0,0-4.175,2.72,10.241,10.241,0,0,0-.815,4.333,7.864,7.864,0,0,0,1.154,4.377,4.018,4.018,0,0,0,3.632,1.775,4.086,4.086,0,0,0,3.013-1.1,5.955,5.955,0,0,0,1.536-3.021h2.97a7.435,7.435,0,0,1-2.546,5.016,8.231,8.231,0,0,1-5.211,1.587,7.116,7.116,0,0,1-5.686-2.47,9.159,9.159,0,0,1-2.122-6.187,10.072,10.072,0,0,1,2.325-7.078,7.7,7.7,0,0,1,5.924-2.529,8.224,8.224,0,0,1,5,1.418Q200.673,27.9,201.064,31.376Z" transform="translate(0 -5.281)"/><path class="cls-11" d="M205.936,23.913a1.383,1.383,0,0,1-.368-.048.969.969,0,0,1-.29-.132.649.649,0,0,1-.188-.2.476.476,0,0,1-.069-.251.52.52,0,0,1,.072-.267.734.734,0,0,1,.194-.215.926.926,0,0,1,.29-.144,1.216,1.216,0,0,1,.358-.051,1.19,1.19,0,0,1,.356.051.937.937,0,0,1,.287.144.741.741,0,0,1,.194.215.52.52,0,0,1,.072.267.476.476,0,0,1-.069.251.651.651,0,0,1-.188.2.962.962,0,0,1-.287.132A1.345,1.345,0,0,1,205.936,23.913ZM205.4,24.97h1.1v6.058h-1.1Zm0,0h1.1v6.058h-1.1Z" transform="translate(0 -5.281)"/><path class="cls-11" d="M208.159,24.947h1.022v.861a2.848,2.848,0,0,1,.964-.766,2.686,2.686,0,0,1,1.131-.233,1.891,1.891,0,0,1,1.844.9,3.035,3.035,0,0,1,.264,1.411v3.9h-1.1V27.2a1.985,1.985,0,0,0-.173-.9,1.061,1.061,0,0,0-1.041-.568,2.325,2.325,0,0,0-.628.071,1.627,1.627,0,0,0-.777.5,1.468,1.468,0,0,0-.35.618,3.992,3.992,0,0,0-.081.918v3.188h-1.077Z" transform="translate(0 -5.281)"/><path class="cls-11" d="M215.183,23.249h1.088v1.7h1.022v.837h-1.022V29.75a.434.434,0,0,0,.227.43,1.047,1.047,0,0,0,.418.061l.167,0c.06,0,.129-.008.209-.016v.807a2.156,2.156,0,0,1-.386.074,3.994,3.994,0,0,1-.434.021,1.206,1.206,0,0,1-1.022-.364,1.562,1.562,0,0,1-.269-.95V25.784h-.867v-.837h.867Z" transform="translate(0 -5.281)"/><path class="cls-11" d="M223.256,25.9a2.642,2.642,0,0,1,.431,1.077,6.665,6.665,0,0,1,.1,1.339h-4.694a2.511,2.511,0,0,0,.46,1.486,1.578,1.578,0,0,0,1.333.559,1.774,1.774,0,0,0,1.345-.526,1.8,1.8,0,0,0,.407-.711h1.058a2.061,2.061,0,0,1-.278.747,2.6,2.6,0,0,1-.529.67,2.57,2.57,0,0,1-1.214.615,3.881,3.881,0,0,1-.879.09,2.765,2.765,0,0,1-2.027-.825,3.114,3.114,0,0,1-.831-2.313,3.387,3.387,0,0,1,.837-2.38,2.826,2.826,0,0,1,2.188-.915,3.064,3.064,0,0,1,1.321.3A2.389,2.389,0,0,1,223.256,25.9Zm-.58,1.6a2.58,2.58,0,0,0-.3-1.064,1.587,1.587,0,0,0-1.477-.735,1.68,1.68,0,0,0-1.244.509,1.868,1.868,0,0,0-.532,1.291Z" transform="translate(0 -5.281)"/><path class="cls-11" d="M225.157,24.947h1.022v1.046a2.337,2.337,0,0,1,.616-.744,1.643,1.643,0,0,1,1.13-.439c.02,0,.054,0,.1.006s.13.012.246.024v1.076a1.672,1.672,0,0,0-.177-.024c-.054,0-.112-.006-.176-.006a1.573,1.573,0,0,0-1.25.5,1.691,1.691,0,0,0-.437,1.146v3.5h-1.076Z" transform="translate(0 -5.281)"/><path class="cls-11" d="M229.278,24.947H230.3v.861a2.848,2.848,0,0,1,.964-.766,2.686,2.686,0,0,1,1.131-.233,1.891,1.891,0,0,1,1.844.9,3.035,3.035,0,0,1,.264,1.411v3.9h-1.1V27.2a1.985,1.985,0,0,0-.173-.9,1.061,1.061,0,0,0-1.041-.568,2.325,2.325,0,0,0-.628.071,1.627,1.627,0,0,0-.777.5,1.468,1.468,0,0,0-.35.618,3.992,3.992,0,0,0-.081.918v3.188h-1.077Z" transform="translate(0 -5.281)"/><path class="cls-11" d="M239.535,27.339a.58.58,0,0,0,.5-.293.856.856,0,0,0,.072-.389.825.825,0,0,0-.392-.763,2.193,2.193,0,0,0-1.121-.235,1.466,1.466,0,0,0-1.2.43,1.386,1.386,0,0,0-.257.712h-1a1.724,1.724,0,0,1,.768-1.563,3.286,3.286,0,0,1,1.713-.439,3.659,3.659,0,0,1,1.836.406,1.378,1.378,0,0,1,.7,1.273v3.5a.436.436,0,0,0,.068.258.344.344,0,0,0,.29.1c.048,0,.1,0,.162-.01s.124-.015.191-.026v.759a3.46,3.46,0,0,1-.383.084,2.859,2.859,0,0,1-.359.018.9.9,0,0,1-.807-.376,1.391,1.391,0,0,1-.185-.562,2.671,2.671,0,0,1-.945.712,3.069,3.069,0,0,1-1.357.3,2.081,2.081,0,0,1-1.456-.515,1.665,1.665,0,0,1-.565-1.285,1.614,1.614,0,0,1,.556-1.31,2.722,2.722,0,0,1,1.459-.574Zm-1.459,3.025a2.558,2.558,0,0,0,1.1-.251,1.4,1.4,0,0,0,.9-1.357V27.93a1.9,1.9,0,0,1-.508.2,4.72,4.72,0,0,1-.61.117l-.651.077a2.528,2.528,0,0,0-.879.233.892.892,0,0,0-.5.849.831.831,0,0,0,.341.7A1.306,1.306,0,0,0,238.076,30.364Z" transform="translate(0 -5.281)"/><path class="cls-11" d="M243.079,23.249h1.088v1.7h1.022v.837h-1.022V29.75a.434.434,0,0,0,.227.43,1.047,1.047,0,0,0,.418.061l.167,0c.06,0,.129-.008.209-.016v.807a2.156,2.156,0,0,1-.386.074,3.994,3.994,0,0,1-.434.021,1.206,1.206,0,0,1-1.022-.364,1.562,1.562,0,0,1-.269-.95V25.784h-.867v-.837h.867Z" transform="translate(0 -5.281)"/><path class="cls-11" d="M246.81,23.913a1.383,1.383,0,0,1-.368-.048.969.969,0,0,1-.29-.132.649.649,0,0,1-.188-.2.476.476,0,0,1-.069-.251.52.52,0,0,1,.072-.267.734.734,0,0,1,.194-.215.926.926,0,0,1,.29-.144,1.216,1.216,0,0,1,.358-.051,1.19,1.19,0,0,1,.356.051.937.937,0,0,1,.287.144.741.741,0,0,1,.194.215.52.52,0,0,1,.072.267.476.476,0,0,1-.069.251.651.651,0,0,1-.188.2.962.962,0,0,1-.287.132A1.345,1.345,0,0,1,246.81,23.913Zm-.538,1.058h1.1v6.058h-1.1Zm0,0h1.1v6.058h-1.1Z" transform="translate(0 -5.281)"/><path class="cls-11" d="M254.586,27.859a3.82,3.82,0,0,1-.753,2.431,2.788,2.788,0,0,1-2.337.959,2.7,2.7,0,0,1-2.1-.849,3.244,3.244,0,0,1-.777-2.278,3.516,3.516,0,0,1,.819-2.445,2.817,2.817,0,0,1,2.2-.909,2.823,2.823,0,0,1,2.947,3.092Zm-1.124.029a2.914,2.914,0,0,0-.287-1.387,1.631,1.631,0,0,0-1.569-.843,1.569,1.569,0,0,0-1.437.717,3.194,3.194,0,0,0-.449,1.729,2.775,2.775,0,0,0,.449,1.617,1.612,1.612,0,0,0,1.426.648,1.5,1.5,0,0,0,1.47-.771A3.679,3.679,0,0,0,253.462,27.888Z" transform="translate(0 -5.281)"/><path class="cls-11" d="M255.93,24.947h1.022v.861a2.851,2.851,0,0,1,.964-.766,2.688,2.688,0,0,1,1.132-.233,1.89,1.89,0,0,1,1.844.9,3.035,3.035,0,0,1,.264,1.411v3.9h-1.1V27.2a1.984,1.984,0,0,0-.174-.9,1.06,1.06,0,0,0-1.04-.568,2.32,2.32,0,0,0-.628.071,1.625,1.625,0,0,0-.777.5,1.462,1.462,0,0,0-.35.618,3.987,3.987,0,0,0-.081.918v3.188H255.93Z" transform="translate(0 -5.281)"/><path class="cls-11" d="M266.187,27.339a.579.579,0,0,0,.5-.293.856.856,0,0,0,.072-.389.825.825,0,0,0-.392-.763,2.195,2.195,0,0,0-1.121-.235,1.466,1.466,0,0,0-1.2.43,1.377,1.377,0,0,0-.257.712h-1a1.725,1.725,0,0,1,.769-1.563,3.286,3.286,0,0,1,1.713-.439,3.66,3.66,0,0,1,1.836.406,1.378,1.378,0,0,1,.7,1.273v3.5a.436.436,0,0,0,.068.258.344.344,0,0,0,.29.1c.048,0,.1,0,.162-.01s.123-.015.191-.026v.759a3.484,3.484,0,0,1-.383.084,2.867,2.867,0,0,1-.359.018.9.9,0,0,1-.807-.376,1.39,1.39,0,0,1-.186-.562,2.669,2.669,0,0,1-.944.712,3.07,3.07,0,0,1-1.357.3,2.081,2.081,0,0,1-1.456-.515,1.664,1.664,0,0,1-.565-1.285,1.613,1.613,0,0,1,.557-1.31,2.718,2.718,0,0,1,1.459-.574Zm-1.459,3.025a2.559,2.559,0,0,0,1.1-.251,1.4,1.4,0,0,0,.9-1.357V27.93a1.9,1.9,0,0,1-.508.2,4.752,4.752,0,0,1-.61.117l-.651.077a2.528,2.528,0,0,0-.879.233.893.893,0,0,0-.5.849.832.832,0,0,0,.341.7A1.308,1.308,0,0,0,264.728,30.364Z" transform="translate(0 -5.281)"/><path class="cls-11" d="M269.609,22.68h1.076v8.348h-1.076Z" transform="translate(0 -5.281)"/><path class="cls-11" d="M280.994,26.992h-1.047a1.816,1.816,0,0,0-.437-.94,1.412,1.412,0,0,0-1.094-.375,1.513,1.513,0,0,0-1.471.958,3.624,3.624,0,0,0-.286,1.526,2.769,2.769,0,0,0,.406,1.542,1.414,1.414,0,0,0,1.278.625,1.44,1.44,0,0,0,1.063-.389,2.1,2.1,0,0,0,.541-1.063h1.047a2.626,2.626,0,0,1-.9,1.767,2.89,2.89,0,0,1-1.834.559,2.508,2.508,0,0,1-2-.87,3.224,3.224,0,0,1-.747-2.179,3.547,3.547,0,0,1,.819-2.493,2.706,2.706,0,0,1,2.086-.892,2.9,2.9,0,0,1,1.762.5A2.353,2.353,0,0,1,280.994,26.992Z" transform="translate(0 -5.281)"/><path class="cls-11" d="M287.8,27.859a3.815,3.815,0,0,1-.754,2.431,2.788,2.788,0,0,1-2.338.959,2.7,2.7,0,0,1-2.1-.849,3.246,3.246,0,0,1-.777-2.278,3.516,3.516,0,0,1,.819-2.445,2.817,2.817,0,0,1,2.2-.909,2.824,2.824,0,0,1,2.948,3.092Zm-1.124.029a2.914,2.914,0,0,0-.288-1.387,1.631,1.631,0,0,0-1.568-.843,1.567,1.567,0,0,0-1.437.717,3.19,3.19,0,0,0-.449,1.729,2.772,2.772,0,0,0,.449,1.617,1.61,1.61,0,0,0,1.425.648,1.5,1.5,0,0,0,1.471-.771A3.668,3.668,0,0,0,286.679,27.888Z" transform="translate(0 -5.281)"/><path class="cls-11" d="M289.171,22.68h1.076v8.348h-1.076Z" transform="translate(0 -5.281)"/><path class="cls-11" d="M291.9,22.68h1.076v8.348H291.9Z" transform="translate(0 -5.281)"/><path class="cls-11" d="M299.633,25.9a2.656,2.656,0,0,1,.431,1.077,6.665,6.665,0,0,1,.1,1.339h-4.693a2.508,2.508,0,0,0,.46,1.486,1.578,1.578,0,0,0,1.333.559,1.708,1.708,0,0,0,1.752-1.237h1.059a2.054,2.054,0,0,1-.278.747,2.594,2.594,0,0,1-.529.67,2.566,2.566,0,0,1-1.213.615,3.89,3.89,0,0,1-.88.09,2.764,2.764,0,0,1-2.026-.825,3.112,3.112,0,0,1-.831-2.313,3.385,3.385,0,0,1,.837-2.38,2.825,2.825,0,0,1,2.188-.915,3.066,3.066,0,0,1,1.321.3A2.393,2.393,0,0,1,299.633,25.9Zm-.58,1.6a2.58,2.58,0,0,0-.3-1.064,1.586,1.586,0,0,0-1.477-.735,1.679,1.679,0,0,0-1.244.509A1.87,1.87,0,0,0,295.5,27.5Z" transform="translate(0 -5.281)"/><path class="cls-11" d="M305.147,25.186a3.05,3.05,0,0,1,.621.58V25h.993v5.531a3.9,3.9,0,0,1-.359,1.829,2.611,2.611,0,0,1-2.529,1.238,3.228,3.228,0,0,1-1.739-.439,1.7,1.7,0,0,1-.789-1.379h1.094a1.144,1.144,0,0,0,.311.638,1.634,1.634,0,0,0,1.148.343,1.594,1.594,0,0,0,1.62-.833,4.473,4.473,0,0,0,.209-1.75,2.072,2.072,0,0,1-.776.694,2.709,2.709,0,0,1-1.2.227,2.643,2.643,0,0,1-1.82-.7,2.986,2.986,0,0,1-.781-2.32,3.393,3.393,0,0,1,.787-2.386,2.486,2.486,0,0,1,1.9-.854A2.453,2.453,0,0,1,305.147,25.186Zm-1.121.562a1.546,1.546,0,0,0-1.558,1.008,3.751,3.751,0,0,0-.222,1.408,2.406,2.406,0,0,0,.44,1.562,1.448,1.448,0,0,0,1.183.537,1.666,1.666,0,0,0,1.635-1,3.034,3.034,0,0,0,.264-1.306,2.427,2.427,0,0,0-.491-1.67A1.614,1.614,0,0,0,304.026,25.748Z" transform="translate(0 -5.281)"/><path class="cls-11" d="M308.958,23.913a1.379,1.379,0,0,1-.367-.048.947.947,0,0,1-.29-.132.645.645,0,0,1-.188-.2.476.476,0,0,1-.069-.251.52.52,0,0,1,.072-.267.734.734,0,0,1,.194-.215.937.937,0,0,1,.29-.144,1.218,1.218,0,0,1,.358-.051,1.2,1.2,0,0,1,.356.051.926.926,0,0,1,.286.144.734.734,0,0,1,.194.215.52.52,0,0,1,.072.267.476.476,0,0,1-.069.251.642.642,0,0,1-.187.2.973.973,0,0,1-.287.132A1.354,1.354,0,0,1,308.958,23.913Zm-.538,1.058h1.1v6.058h-1.1Zm0,0h1.1v6.058h-1.1Z" transform="translate(0 -5.281)"/><path class="cls-11" d="M314.563,27.339a.579.579,0,0,0,.5-.293.857.857,0,0,0,.071-.389.823.823,0,0,0-.392-.763,2.19,2.19,0,0,0-1.121-.235,1.465,1.465,0,0,0-1.2.43,1.385,1.385,0,0,0-.258.712h-1a1.723,1.723,0,0,1,.769-1.563,3.283,3.283,0,0,1,1.713-.439,3.654,3.654,0,0,1,1.835.406,1.377,1.377,0,0,1,.7,1.273v3.5a.436.436,0,0,0,.068.258.344.344,0,0,0,.29.1c.048,0,.1,0,.161-.01s.124-.015.191-.026v.759a3.478,3.478,0,0,1-.382.084,2.867,2.867,0,0,1-.359.018.9.9,0,0,1-.807-.376,1.39,1.39,0,0,1-.186-.562,2.674,2.674,0,0,1-.945.712,3.063,3.063,0,0,1-1.356.3,2.078,2.078,0,0,1-1.456-.515,1.664,1.664,0,0,1-.565-1.285,1.616,1.616,0,0,1,.556-1.31,2.725,2.725,0,0,1,1.459-.574ZM313.1,30.364a2.555,2.555,0,0,0,1.1-.251,1.4,1.4,0,0,0,.9-1.357V27.93a1.911,1.911,0,0,1-.509.2,4.707,4.707,0,0,1-.609.117l-.652.077a2.528,2.528,0,0,0-.879.233.892.892,0,0,0-.5.849.829.829,0,0,0,.341.7A1.306,1.306,0,0,0,313.1,30.364Z" transform="translate(0 -5.281)"/><path class="cls-11" d="M318.107,23.249H319.2v1.7h1.022v.837H319.2V29.75a.433.433,0,0,0,.228.43,1.041,1.041,0,0,0,.418.061l.168,0c.06,0,.129-.008.209-.016v.807a2.156,2.156,0,0,1-.386.074,4,4,0,0,1-.434.021,1.206,1.206,0,0,1-1.022-.364,1.558,1.558,0,0,1-.269-.95V25.784h-.867v-.837h.867Z" transform="translate(0 -5.281)"/><path class="cls-11" d="M326.179,25.9a2.656,2.656,0,0,1,.431,1.077,6.665,6.665,0,0,1,.1,1.339h-4.693a2.508,2.508,0,0,0,.46,1.486,1.578,1.578,0,0,0,1.333.559,1.708,1.708,0,0,0,1.752-1.237h1.059a2.054,2.054,0,0,1-.278.747,2.594,2.594,0,0,1-.529.67,2.566,2.566,0,0,1-1.213.615,3.89,3.89,0,0,1-.88.09,2.764,2.764,0,0,1-2.026-.825,3.112,3.112,0,0,1-.831-2.313,3.385,3.385,0,0,1,.837-2.38,2.825,2.825,0,0,1,2.188-.915,3.066,3.066,0,0,1,1.321.3A2.393,2.393,0,0,1,326.179,25.9Zm-.58,1.6a2.58,2.58,0,0,0-.3-1.064,1.586,1.586,0,0,0-1.477-.735,1.679,1.679,0,0,0-1.244.509,1.87,1.87,0,0,0-.532,1.291Z" transform="translate(0 -5.281)"/><path class="cls-11" d="M205.419,37.109h1.046v.808a2.563,2.563,0,0,1,.706-.64,2.357,2.357,0,0,1,1.279-.341,2.462,2.462,0,0,1,1.848.792,3.141,3.141,0,0,1,.759,2.264,3.39,3.39,0,0,1-1.094,2.84,2.563,2.563,0,0,1-1.615.538,2.294,2.294,0,0,1-1.214-.3,2.869,2.869,0,0,1-.64-.586v3.109h-1.076Zm4.538,2.979a3.214,3.214,0,0,0-.221-1.25,1.65,1.65,0,0,0-3.061.06,4,4,0,0,0-.222,1.441,2.888,2.888,0,0,0,.222,1.2,1.53,1.53,0,0,0,1.53.945,1.564,1.564,0,0,0,1.253-.6A2.747,2.747,0,0,0,209.957,40.088Z" transform="translate(0 -5.281)"/><path class="cls-11" d="M212.4,37.086h1.022v1.046a2.337,2.337,0,0,1,.616-.744,1.643,1.643,0,0,1,1.13-.439c.02,0,.054,0,.1.006s.13.012.246.024v1.076a1.672,1.672,0,0,0-.177-.024c-.054,0-.112-.006-.176-.006a1.573,1.573,0,0,0-1.25.5,1.691,1.691,0,0,0-.437,1.146v3.5H212.4Z" transform="translate(0 -5.281)"/><path class="cls-11" d="M222.03,40a3.82,3.82,0,0,1-.753,2.431,2.789,2.789,0,0,1-2.338.959,2.7,2.7,0,0,1-2.1-.849,3.244,3.244,0,0,1-.777-2.278,3.516,3.516,0,0,1,.819-2.445,2.817,2.817,0,0,1,2.2-.909A2.823,2.823,0,0,1,222.03,40Zm-1.124.029a2.914,2.914,0,0,0-.287-1.387,1.633,1.633,0,0,0-1.569-.843,1.569,1.569,0,0,0-1.437.717,3.194,3.194,0,0,0-.449,1.729,2.775,2.775,0,0,0,.449,1.617,1.612,1.612,0,0,0,1.426.648,1.5,1.5,0,0,0,1.47-.771A3.673,3.673,0,0,0,220.906,40.027Z" transform="translate(0 -5.281)"/><path class="cls-11" d="M227,37.325a3.053,3.053,0,0,1,.622.58v-.766h.992v5.531a3.9,3.9,0,0,1-.358,1.829,2.612,2.612,0,0,1-2.529,1.238,3.232,3.232,0,0,1-1.74-.439,1.7,1.7,0,0,1-.789-1.379h1.094a1.141,1.141,0,0,0,.311.638,1.633,1.633,0,0,0,1.148.343,1.594,1.594,0,0,0,1.62-.833,4.48,4.48,0,0,0,.209-1.75,2.078,2.078,0,0,1-.777.694,2.7,2.7,0,0,1-1.2.227,2.644,2.644,0,0,1-1.821-.7,2.988,2.988,0,0,1-.78-2.32,3.4,3.4,0,0,1,.786-2.386,2.489,2.489,0,0,1,1.9-.854A2.451,2.451,0,0,1,227,37.325Zm-1.121.562a1.546,1.546,0,0,0-1.557,1.008A3.742,3.742,0,0,0,224.1,40.3a2.409,2.409,0,0,0,.44,1.562,1.449,1.449,0,0,0,1.183.537,1.667,1.667,0,0,0,1.635-1,3.034,3.034,0,0,0,.264-1.306,2.431,2.431,0,0,0-.491-1.67A1.616,1.616,0,0,0,225.879,37.886Z" transform="translate(0 -5.281)"/><path class="cls-11" d="M230.279,37.086H231.3v1.046a2.337,2.337,0,0,1,.616-.744,1.643,1.643,0,0,1,1.13-.439c.02,0,.054,0,.1.006s.13.012.246.024v1.076a1.672,1.672,0,0,0-.177-.024c-.054,0-.112-.006-.176-.006a1.573,1.573,0,0,0-1.25.5,1.691,1.691,0,0,0-.437,1.146v3.5h-1.076Z" transform="translate(0 -5.281)"/><path class="cls-11" d="M237.772,39.477a.58.58,0,0,0,.5-.293.856.856,0,0,0,.072-.389.825.825,0,0,0-.392-.763,2.193,2.193,0,0,0-1.121-.235,1.466,1.466,0,0,0-1.2.43,1.386,1.386,0,0,0-.257.712h-1a1.724,1.724,0,0,1,.768-1.563,3.286,3.286,0,0,1,1.713-.439,3.659,3.659,0,0,1,1.836.406,1.378,1.378,0,0,1,.7,1.273v3.5a.436.436,0,0,0,.068.258.344.344,0,0,0,.29.1c.048,0,.1,0,.162-.01s.124-.015.191-.026V43.2a3.46,3.46,0,0,1-.383.084,2.859,2.859,0,0,1-.359.018.9.9,0,0,1-.807-.376,1.39,1.39,0,0,1-.185-.562,2.671,2.671,0,0,1-.945.712,3.069,3.069,0,0,1-1.357.3,2.081,2.081,0,0,1-1.456-.515,1.665,1.665,0,0,1-.565-1.285,1.614,1.614,0,0,1,.556-1.31,2.722,2.722,0,0,1,1.459-.574ZM236.313,42.5a2.558,2.558,0,0,0,1.1-.251,1.4,1.4,0,0,0,.9-1.357v-.825a1.9,1.9,0,0,1-.508.2,4.72,4.72,0,0,1-.61.117l-.651.077a2.528,2.528,0,0,0-.879.233.892.892,0,0,0-.5.849.831.831,0,0,0,.341.7A1.306,1.306,0,0,0,236.313,42.5Z" transform="translate(0 -5.281)"/><path class="cls-11" d="M241.188,37.086h1.064v.861a3.455,3.455,0,0,1,.694-.652,2.176,2.176,0,0,1,1.21-.347,1.977,1.977,0,0,1,1.233.358,1.886,1.886,0,0,1,.479.6,2.3,2.3,0,0,1,.842-.721,2.447,2.447,0,0,1,1.087-.236,1.8,1.8,0,0,1,1.755.885,2.784,2.784,0,0,1,.251,1.286v4.048h-1.118V38.939a.955.955,0,0,0-.319-.831,1.307,1.307,0,0,0-.778-.228,1.6,1.6,0,0,0-1.089.4,1.715,1.715,0,0,0-.456,1.346v3.54h-1.1V39.2a1.96,1.96,0,0,0-.156-.9.964.964,0,0,0-.915-.425,1.622,1.622,0,0,0-1.109.448,2.12,2.12,0,0,0-.5,1.62v3.229h-1.077Z" transform="translate(0 -5.281)"/><path class="cls-11" d="M251.427,37.086h1.064v.861a3.455,3.455,0,0,1,.694-.652,2.176,2.176,0,0,1,1.21-.347,1.977,1.977,0,0,1,1.233.358,1.885,1.885,0,0,1,.479.6,2.3,2.3,0,0,1,.842-.721,2.447,2.447,0,0,1,1.087-.236,1.8,1.8,0,0,1,1.756.885,2.79,2.79,0,0,1,.251,1.286v4.048h-1.118V38.939a.955.955,0,0,0-.319-.831,1.309,1.309,0,0,0-.778-.228,1.6,1.6,0,0,0-1.089.4,1.713,1.713,0,0,0-.456,1.346v3.54h-1.1V39.2a1.961,1.961,0,0,0-.155-.9.965.965,0,0,0-.915-.425,1.623,1.623,0,0,0-1.109.448,2.122,2.122,0,0,0-.5,1.62v3.229h-1.077Z" transform="translate(0 -5.281)"/><path class="cls-11" d="M262.18,36.051a1.38,1.38,0,0,1-.367-.048.969.969,0,0,1-.29-.132.645.645,0,0,1-.188-.2.475.475,0,0,1-.068-.251.52.52,0,0,1,.071-.267.734.734,0,0,1,.194-.215.937.937,0,0,1,.29-.144,1.218,1.218,0,0,1,.358-.051,1.2,1.2,0,0,1,.356.051.942.942,0,0,1,.287.144.748.748,0,0,1,.194.215.52.52,0,0,1,.071.267.475.475,0,0,1-.068.251.657.657,0,0,1-.188.2.973.973,0,0,1-.287.132A1.349,1.349,0,0,1,262.18,36.051Zm-.538,1.058h1.1v6.058h-1.1Zm0,0h1.1v6.058h-1.1Z" transform="translate(0 -5.281)"/><path class="cls-11" d="M264.4,37.086h1.022v.861a2.851,2.851,0,0,1,.964-.766,2.688,2.688,0,0,1,1.132-.233,1.89,1.89,0,0,1,1.844.9,3.035,3.035,0,0,1,.264,1.411v3.9h-1.1V39.334a1.984,1.984,0,0,0-.174-.9,1.06,1.06,0,0,0-1.04-.568,2.32,2.32,0,0,0-.628.071,1.625,1.625,0,0,0-.777.5,1.462,1.462,0,0,0-.35.618,3.987,3.987,0,0,0-.081.918v3.188H264.4Z" transform="translate(0 -5.281)"/><path class="cls-11" d="M274.891,37.325a3.078,3.078,0,0,1,.622.58v-.766h.992v5.531a3.9,3.9,0,0,1-.358,1.829,2.613,2.613,0,0,1-2.529,1.238,3.231,3.231,0,0,1-1.74-.439,1.7,1.7,0,0,1-.789-1.379h1.094a1.138,1.138,0,0,0,.312.638,1.632,1.632,0,0,0,1.147.343,1.594,1.594,0,0,0,1.62-.833,4.469,4.469,0,0,0,.21-1.75,2.082,2.082,0,0,1-.777.694,2.706,2.706,0,0,1-1.2.227,2.643,2.643,0,0,1-1.82-.7,2.986,2.986,0,0,1-.78-2.32,3.393,3.393,0,0,1,.786-2.386,2.489,2.489,0,0,1,1.9-.854A2.453,2.453,0,0,1,274.891,37.325Zm-1.121.562a1.546,1.546,0,0,0-1.558,1.008,3.751,3.751,0,0,0-.222,1.408,2.411,2.411,0,0,0,.44,1.562,1.45,1.45,0,0,0,1.183.537,1.667,1.667,0,0,0,1.636-1,3.034,3.034,0,0,0,.264-1.306,2.431,2.431,0,0,0-.491-1.67A1.617,1.617,0,0,0,273.77,37.886Z" transform="translate(0 -5.281)"/><path class="cls-11" d="M286.819,39.131h-1.047a1.815,1.815,0,0,0-.437-.94,1.412,1.412,0,0,0-1.094-.375,1.512,1.512,0,0,0-1.471.958,3.608,3.608,0,0,0-.287,1.526,2.777,2.777,0,0,0,.406,1.542,1.415,1.415,0,0,0,1.279.625,1.436,1.436,0,0,0,1.062-.389,2.1,2.1,0,0,0,.541-1.063h1.047a2.621,2.621,0,0,1-.9,1.767,2.893,2.893,0,0,1-1.835.559,2.506,2.506,0,0,1-2-.87,3.219,3.219,0,0,1-.748-2.179,3.547,3.547,0,0,1,.819-2.493,2.707,2.707,0,0,1,2.087-.892,2.9,2.9,0,0,1,1.761.5A2.349,2.349,0,0,1,286.819,39.131Z" transform="translate(0 -5.281)"/><path class="cls-11" d="M293.628,40a3.815,3.815,0,0,1-.754,2.431,2.788,2.788,0,0,1-2.338.959,2.7,2.7,0,0,1-2.1-.849,3.246,3.246,0,0,1-.777-2.278,3.516,3.516,0,0,1,.819-2.445,2.817,2.817,0,0,1,2.2-.909A2.824,2.824,0,0,1,293.628,40Zm-1.124.029a2.914,2.914,0,0,0-.288-1.387,1.631,1.631,0,0,0-1.568-.843,1.567,1.567,0,0,0-1.437.717,3.19,3.19,0,0,0-.449,1.729,2.772,2.772,0,0,0,.449,1.617,1.61,1.61,0,0,0,1.425.648,1.5,1.5,0,0,0,1.471-.771A3.668,3.668,0,0,0,292.5,40.027Z" transform="translate(0 -5.281)"/><path class="cls-11" d="M294.967,37.086h1.022v.861a2.851,2.851,0,0,1,.964-.766,2.691,2.691,0,0,1,1.132-.233,1.892,1.892,0,0,1,1.845.9,3.036,3.036,0,0,1,.263,1.411v3.9h-1.1V39.334a1.971,1.971,0,0,0-.174-.9,1.06,1.06,0,0,0-1.04-.568,2.325,2.325,0,0,0-.628.071,1.629,1.629,0,0,0-.777.5,1.462,1.462,0,0,0-.35.618,3.987,3.987,0,0,0-.081.918v3.188h-1.076Z" transform="translate(0 -5.281)"/><path class="cls-11" d="M301.992,35.387h1.088v1.7H304.1v.837H303.08v3.966a.433.433,0,0,0,.228.43,1.041,1.041,0,0,0,.418.061l.168,0c.06,0,.129-.008.209-.016v.807a2.156,2.156,0,0,1-.386.074,4,4,0,0,1-.434.021,1.206,1.206,0,0,1-1.022-.364,1.558,1.558,0,0,1-.269-.95V37.923h-.867v-.837h.867Z" transform="translate(0 -5.281)"/><path class="cls-11" d="M310.064,38.036a2.656,2.656,0,0,1,.431,1.077,6.665,6.665,0,0,1,.1,1.339H305.9a2.508,2.508,0,0,0,.46,1.486,1.578,1.578,0,0,0,1.333.559,1.708,1.708,0,0,0,1.752-1.237H310.5a2.054,2.054,0,0,1-.278.747,2.594,2.594,0,0,1-.529.67,2.566,2.566,0,0,1-1.213.615,3.89,3.89,0,0,1-.88.09,2.764,2.764,0,0,1-2.026-.825,3.112,3.112,0,0,1-.831-2.313,3.385,3.385,0,0,1,.837-2.38,2.825,2.825,0,0,1,2.188-.915,3.066,3.066,0,0,1,1.321.3A2.393,2.393,0,0,1,310.064,38.036Zm-.58,1.6a2.58,2.58,0,0,0-.3-1.064,1.586,1.586,0,0,0-1.477-.735,1.679,1.679,0,0,0-1.244.509,1.87,1.87,0,0,0-.532,1.291Z" transform="translate(0 -5.281)"/><path class="cls-11" d="M312.587,41.259a1.45,1.45,0,0,0,.27.783,1.729,1.729,0,0,0,1.408.5,2.155,2.155,0,0,0,1.05-.248.82.82,0,0,0,.454-.769.644.644,0,0,0-.365-.592,4.477,4.477,0,0,0-.921-.293l-.854-.2A4.28,4.28,0,0,1,312.42,40a1.277,1.277,0,0,1-.693-1.148,1.712,1.712,0,0,1,.657-1.4,2.707,2.707,0,0,1,1.764-.535,2.505,2.505,0,0,1,2.087.807,1.683,1.683,0,0,1,.389,1.1h-1.017a1.132,1.132,0,0,0-.257-.628,1.682,1.682,0,0,0-1.285-.406,1.6,1.6,0,0,0-.924.221.685.685,0,0,0-.314.586.719.719,0,0,0,.412.64,2.652,2.652,0,0,0,.705.245l.71.168a5.859,5.859,0,0,1,1.553.514,1.358,1.358,0,0,1,.627,1.238,1.836,1.836,0,0,1-.648,1.4,2.844,2.844,0,0,1-1.973.593,2.741,2.741,0,0,1-2.022-.616,2.269,2.269,0,0,1-.637-1.524Z" transform="translate(0 -5.281)"/><path class="cls-11" d="M318.353,35.387h1.088v1.7h1.022v.837H319.44v3.966a.433.433,0,0,0,.228.43,1.041,1.041,0,0,0,.418.061l.168,0c.06,0,.129-.008.209-.016v.807a2.156,2.156,0,0,1-.386.074,4,4,0,0,1-.434.021,1.206,1.206,0,0,1-1.022-.364,1.558,1.558,0,0,1-.269-.95V37.923h-.867v-.837h.867Z" transform="translate(0 -5.281)"/><path id="_1" data-name="1" class="cls-11" d="M14.378,47.59c-.8,0-.885.51-.885.73s.086.73.885.73c.6,0,1-.287,1-.73S14.983,47.59,14.378,47.59Zm0,1.021c-.447,0-.447-.2-.447-.291s0-.291.447-.291c.057,0,.557.008.557.291S14.435,48.611,14.378,48.611Z" transform="translate(0 -5.281)"/><g id="solve"><path class="cls-12" d="M78.834,25.8h-5.54c2.441,1.822,3.821,3.716,4.1,5.628a6.016,6.016,0,0,1-1.423,4.595l-.047.061c-2.124,2.708-6.458,4.754-8.224,5.508-.2.061-.4.12-.6.179H78.834a2.77,2.77,0,0,0,2.761-2.773V28.57A2.77,2.77,0,0,0,78.834,25.8Z" transform="translate(0 -5.281)"/><path class="cls-12" d="M72.048,25.9l-.128-.1H64.309a2.77,2.77,0,0,0-2.76,2.773V38.994a2.77,2.77,0,0,0,2.76,2.774h.041l.315-.1C71.747,39.32,76.289,35.77,76.518,32.4,76.751,29,72.53,26.2,72.048,25.9Z" transform="translate(0 -5.281)"/><path id="Bill" class="cls-12" d="M78.047,12.808a7.9,7.9,0,0,0,.115-1.323,5.751,5.751,0,0,0-2.678-5.012,7.626,7.626,0,0,0-8-.116A6.02,6.02,0,0,0,64.769,11.7a9.924,9.924,0,0,0,.127,1.54,9.672,9.672,0,0,0,3.737,6.248c-1.056-.287-2.436-.423-3.034.546a.854.854,0,0,0,.193,1.238c.768.551,2.635.405,3.763-.24l-.774,1.8h5.195L72.937,20.76c1.257.526,2.714,1,3.5.52a1.1,1.1,0,0,0,.516-.944,1.133,1.133,0,0,0-.461-1.051,2.669,2.669,0,0,0-1.93-.208c.092-.075.179-.15.266-.227A10.2,10.2,0,0,0,78.047,12.808ZM66.175,20.744c-.075-.054-.167-.121-.017-.363.45-.734,1.954-.452,3.177.034A3.76,3.76,0,0,1,66.175,20.744Zm9.942-.924a.486.486,0,0,1,.185.482.477.477,0,0,1-.2.42c-.3.182-1.057.217-2.981-.6C74.29,19.735,75.622,19.471,76.117,19.82Zm-3.825-.094-.166.066-.229.079-.11.054,0,.007-.378.157.586.262.918,1.834H69.776l.9-2.11-.329-.2a9.366,9.366,0,0,1-4.808-6.738,9.152,9.152,0,0,1-.118-1.429,5.4,5.4,0,0,1,2.416-4.8,6.944,6.944,0,0,1,7.283.112,5.133,5.133,0,0,1,2.383,4.475,7.265,7.265,0,0,1-.105,1.2A9.121,9.121,0,0,1,72.291,19.726Z" transform="translate(0 -5.281)"/><path class="cls-12" d="M73.016,25.668l-.045-.031-.02-.012a4.138,4.138,0,0,1-1.885-2.786H70.36a4.289,4.289,0,0,0,1.445,2.786l.055.044.082.064h1.166Z" transform="translate(0 -5.281)"/></g><g id="create"><path class="cls-5" d="M54.1,25.8H53.11l0,.107a6.217,6.217,0,0,1-1.87,4.409,4.628,4.628,0,0,1-1.725,1.108l-.464,3.218H44.516l-.4-3.192c-3.407-1.306-3.536-4.886-3.575-5.591l0-.059h-1a2.777,2.777,0,0,0-2.768,2.779v10.45a2.772,2.772,0,0,0,2.371,2.74H54.5a2.772,2.772,0,0,0,2.371-2.74V28.578A2.777,2.777,0,0,0,54.1,25.8Zm-9.536,9.6h4.5v.664h-4.5Zm0,1.272h4.5v.664h-4.5Zm3.1,3.208H45.9v-.664h1.773Zm1.411-1.272h-4.5v-.664h4.5Z" transform="translate(0 -5.281)"/><path class="cls-5" d="M44.5,29.064l2.581-1.056-2.217-.676L46.422,25.9l.1-.107H41.39V25.9a5.287,5.287,0,0,0,3.316,5l.061.023.008.065.367,2.9h1.341v-3.5l.711-.584Z" transform="translate(0 -5.281)"/><path class="cls-5" d="M47.47,25.8l-.091.107-1.152,1.1,2.969.833L46.541,28.93l2.085.584L47.176,30.7v3.189H48.4l.423-2.985.057-.024A5.5,5.5,0,0,0,52.284,25.9V25.8Z" transform="translate(0 -5.281)"/><rect class="cls-5" x="52.489" y="21.856" width="5.12" height="0.655" transform="translate(-4.109 21.676) rotate(-26.561)"/><rect class="cls-5" x="50.545" y="19.237" width="5.498" height="0.655" transform="translate(0.457 35.052) rotate(-41.616)"/><rect class="cls-5" x="47.652" y="17.154" width="5.471" height="0.655" transform="translate(14.354 51.521) rotate(-66.631)"/><rect class="cls-5" x="46.496" y="8.541" width="0.655" height="5.618"/><polygon class="cls-5" points="42.519 9.659 42.476 9.56 41.874 9.82 44.001 14.742 44.045 14.842 44.646 14.582 42.519 9.659"/><rect class="cls-5" x="40.027" y="16.816" width="0.655" height="5.498" transform="translate(-1.05 31.517) rotate(-48.464)"/><rect class="cls-5" x="38.271" y="19.623" width="0.655" height="5.12" transform="translate(1.51 41.526) rotate(-63.467)"/></g><path id="_4" data-name="4" class="cls-11" d="M23.584,44.329a1.446,1.446,0,1,0,0,2.843,1.447,1.447,0,1,0,0-2.843Zm0,2.3c-.643,0-1.167-.392-1.167-.875s.523-.875,1.167-.875,1.168.392,1.168.875S24.228,46.626,23.584,46.626Z" transform="translate(0 -5.281)"/><path id="_3" data-name="3" class="cls-11" d="M21.518,46.822a1.407,1.407,0,0,0-2.772.282,1.233,1.233,0,0,0,1.5.965C21.047,47.987,21.583,47.463,21.518,46.822Zm-1.324.753c-.423.043-.9-.1-.94-.523a.9.9,0,0,1,1.755-.178C21.052,47.295,20.617,47.533,20.194,47.576Z" transform="translate(0 -5.281)"/><path id="_2" data-name="2" class="cls-11" d="M17.057,46.825c-.752,0-1.219.354-1.219.923s.467.923,1.219.923,1.219-.354,1.219-.923S17.809,46.825,17.057,46.825Zm0,1.356c-.338,0-.741-.075-.741-.433s.4-.432.741-.432.742.075.742.432S17.4,48.181,17.057,48.181Z" transform="translate(0 -5.281)"/><path class="cls-11" d="M34.083,36.5a3.45,3.45,0,0,0-1.815-2.529l-.043-.031-.007,0-.057-.038v.819c.026.017.067.045.107.074A2.567,2.567,0,0,1,33.4,36.475a2.653,2.653,0,0,1-1.134,2.158l-.029.028-.078.069-.054.048.054.021.107.043h0c.012.005,1.2.506.634,2.261a4.136,4.136,0,0,1-4.121,2.724h-.028a9.429,9.429,0,0,1-4.707-1.411l-.073-.041-.058.061a4.424,4.424,0,0,1-2.783,1.313c-.019,0-1.315.1-2.158-1.6l-.043-.085-.09.031c-.011,0-.985.326-1.5-.161a.875.875,0,0,1-.1-.107H17.1v0h-.5v0h-.112l.008.027.014.037.017.043c.109.26.573,1.09,2.057.9a3.143,3.143,0,0,0,2.547,1.558h0a4.386,4.386,0,0,0,2.938-1.2,11.4,11.4,0,0,0,4.5,1.29,4.513,4.513,0,0,0,.519-.029,4.892,4.892,0,0,0,4.344-2.893,2.662,2.662,0,0,0-.337-2.846A3.012,3.012,0,0,0,34.083,36.5Z" transform="translate(0 -5.281)"/><path class="cls-11" d="M32.1,34.736l-.085-.047A6.915,6.915,0,0,0,27.892,32.9a3.68,3.68,0,0,0-.66.059,3.578,3.578,0,0,0-2.29,1.523L24.7,34.9l-.072-.478c-.191-1.244-.816-1.327-.829-1.328a.684.684,0,0,0-.137-.013c-.68,0-1.582.9-1.592.914l-.212.215-.077-.291c-.479-1.782-1.685-1.819-1.73-1.82a3.349,3.349,0,0,0-2.273.887,1.482,1.482,0,0,0,.159,2l.171.179-.228.1c-2.291.994-2.159,1.835-2.157,1.849.078.6,1.412,1.217,2.233,1.461l.234.07-.145.2c-1.315,1.792-.922,2.678-.827,2.836l.028.078H29.329A2.777,2.777,0,0,0,32.1,38.98V34.736Z" transform="translate(0 -5.281)"/><path class="cls-11" d="M29.329,25.8H14.768A2.773,2.773,0,0,0,12,28.568v10.42a2.773,2.773,0,0,0,2.768,2.771h1.623l-.011-.027a3.435,3.435,0,0,1,.529-2.663c-1.285-.532-1.953-1.168-1.985-1.89-.048-1.114,1.428-2.021,1.968-2.315a2.2,2.2,0,0,1-.121-1.769A2.743,2.743,0,0,1,18.3,31.7a3.749,3.749,0,0,1,1.557-.381,2.5,2.5,0,0,1,.95.182,2.88,2.88,0,0,1,1.423,1.357,2.723,2.723,0,0,1,1.451-.524,1.484,1.484,0,0,1,.458.071,1.63,1.63,0,0,1,.906.8,4.032,4.032,0,0,1,2.748-1.04,8.038,8.038,0,0,1,4.294,1.609l.013.009V28.568A2.773,2.773,0,0,0,29.329,25.8Z" transform="translate(0 -5.281)"/><path class="cls-12" d="M37.638,45.995a.717.717,0,0,1-.193-.025.5.5,0,0,1-.152-.069.336.336,0,0,1-.1-.1.243.243,0,0,1-.036-.132.27.27,0,0,1,.038-.14.376.376,0,0,1,.1-.112.485.485,0,0,1,.152-.076.65.65,0,0,1,.188-.026.636.636,0,0,1,.187.026.487.487,0,0,1,.151.076.39.39,0,0,1,.1.112.275.275,0,0,1,.038.14.248.248,0,0,1-.036.132.338.338,0,0,1-.1.1.492.492,0,0,1-.15.069A.7.7,0,0,1,37.638,45.995Zm-.282.556h.578v3.181h-.578Zm0,0h.578v3.181h-.578Z" transform="translate(0 -5.281)"/><path class="cls-12" d="M41.554,47.612H41a.953.953,0,0,0-.229-.494.744.744,0,0,0-.575-.2.794.794,0,0,0-.772.5,1.9,1.9,0,0,0-.151.8,1.455,1.455,0,0,0,.213.81.744.744,0,0,0,.672.329.759.759,0,0,0,.558-.2A1.1,1.1,0,0,0,41,48.6h.55a1.373,1.373,0,0,1-.471.928,1.518,1.518,0,0,1-.964.294,1.316,1.316,0,0,1-1.052-.457,1.693,1.693,0,0,1-.393-1.145,1.862,1.862,0,0,1,.43-1.309,1.422,1.422,0,0,1,1.1-.468,1.522,1.522,0,0,1,.925.262A1.236,1.236,0,0,1,41.554,47.612Z" transform="translate(0 -5.281)"/><path class="cls-12" d="M42.26,46.551h.549v.424a1.335,1.335,0,0,1,.371-.336,1.24,1.24,0,0,1,.672-.179,1.294,1.294,0,0,1,.97.416,1.65,1.65,0,0,1,.4,1.188,1.781,1.781,0,0,1-.574,1.491,1.344,1.344,0,0,1-.848.282,1.206,1.206,0,0,1-.637-.157,1.476,1.476,0,0,1-.336-.308v1.633H42.26Zm2.383,1.563a1.686,1.686,0,0,0-.116-.656.867.867,0,0,0-1.607.031,2.1,2.1,0,0,0-.116.757,1.52,1.52,0,0,0,.116.628.8.8,0,0,0,.8.5.822.822,0,0,0,.658-.313A1.444,1.444,0,0,0,44.643,48.114Z" transform="translate(0 -5.281)"/><path class="cls-12" d="M48.682,47.612h-.55a.953.953,0,0,0-.229-.494.744.744,0,0,0-.575-.2.794.794,0,0,0-.772.5,1.9,1.9,0,0,0-.151.8,1.455,1.455,0,0,0,.213.81.744.744,0,0,0,.672.329.759.759,0,0,0,.558-.2,1.1,1.1,0,0,0,.284-.56h.55a1.373,1.373,0,0,1-.471.928,1.518,1.518,0,0,1-.964.294,1.316,1.316,0,0,1-1.052-.457A1.693,1.693,0,0,1,45.8,48.22a1.862,1.862,0,0,1,.43-1.309,1.422,1.422,0,0,1,1.1-.468,1.522,1.522,0,0,1,.925.262A1.236,1.236,0,0,1,48.682,47.612Z" transform="translate(0 -5.281)"/><path class="cls-12" d="M49.784,49.747a.759.759,0,0,1-.193-.023.447.447,0,0,1-.152-.069.355.355,0,0,1-.1-.105.248.248,0,0,1-.036-.132.276.276,0,0,1,.038-.138.393.393,0,0,1,.1-.115.5.5,0,0,1,.152-.075.654.654,0,0,1,.188-.026.639.639,0,0,1,.187.026.511.511,0,0,1,.15.075.386.386,0,0,1,.1.115.271.271,0,0,1,.038.138.243.243,0,0,1-.036.132.353.353,0,0,1-.1.105.457.457,0,0,1-.151.069A.742.742,0,0,1,49.784,49.747Z" transform="translate(0 -5.281)"/><path class="cls-12" d="M51.363,45.561a.892.892,0,0,1,.763-.272h.11c.038,0,.081,0,.129.008v.49c-.059,0-.1-.007-.127-.008l-.074,0c-.172,0-.274.042-.308.127a2.406,2.406,0,0,0-.05.646h.559v.424H51.8v2.757H51.24V46.974h-.468v-.424h.468v-.5A.916.916,0,0,1,51.363,45.561Z" transform="translate(0 -5.281)"/><path class="cls-12" d="M55.87,48.067a2.005,2.005,0,0,1-.4,1.276,1.464,1.464,0,0,1-1.228.5,1.419,1.419,0,0,1-1.1-.446,1.7,1.7,0,0,1-.408-1.2,1.847,1.847,0,0,1,.43-1.284,1.481,1.481,0,0,1,1.156-.477,1.483,1.483,0,0,1,1.548,1.623Zm-.59.016a1.529,1.529,0,0,0-.151-.729.858.858,0,0,0-.824-.442.824.824,0,0,0-.755.376,1.679,1.679,0,0,0-.236.908,1.454,1.454,0,0,0,.236.849.845.845,0,0,0,.749.341.788.788,0,0,0,.772-.405A1.923,1.923,0,0,0,55.28,48.083Z" transform="translate(0 -5.281)"/><path class="cls-12" d="M57.221,46.538v2.117a.851.851,0,0,0,.082.4.575.575,0,0,0,.562.288.8.8,0,0,0,.8-.5,1.9,1.9,0,0,0,.116-.736V46.538h.565v3.193h-.534l.006-.471a1.109,1.109,0,0,1-.273.308,1.243,1.243,0,0,1-.785.251,1.028,1.028,0,0,1-.98-.459,1.3,1.3,0,0,1-.141-.652v-2.17Z" transform="translate(0 -5.281)"/><path class="cls-12" d="M60.319,46.538h.537v.452a1.49,1.49,0,0,1,.506-.4,1.405,1.405,0,0,1,.594-.123.993.993,0,0,1,.968.475,1.59,1.59,0,0,1,.139.74v2.051h-.578V47.718a1.044,1.044,0,0,0-.091-.471.557.557,0,0,0-.546-.3,1.188,1.188,0,0,0-.33.038.853.853,0,0,0-.408.264.769.769,0,0,0-.184.325,2.078,2.078,0,0,0-.042.481v1.674h-.565Z" transform="translate(0 -5.281)"/><path class="cls-12" d="M65.893,46.635a1.443,1.443,0,0,1,.342.313V45.336h.543v4.4H66.27v-.446a1.181,1.181,0,0,1-.468.429,1.4,1.4,0,0,1-.618.13,1.28,1.28,0,0,1-.974-.448A1.7,1.7,0,0,1,63.8,48.2a1.986,1.986,0,0,1,.375-1.21,1.4,1.4,0,0,1,1.719-.356Zm-.534,2.74A.787.787,0,0,0,66,49.056a1.458,1.458,0,0,0,.253-.92,1.311,1.311,0,0,0-.261-.9.829.829,0,0,0-.644-.291.869.869,0,0,0-.692.31,1.366,1.366,0,0,0-.265.912,1.525,1.525,0,0,0,.229.86A.817.817,0,0,0,65.359,49.376Z" transform="translate(0 -5.281)"/><path class="cls-12" d="M69.518,47.794a.3.3,0,0,0,.26-.153.447.447,0,0,0,.038-.2.431.431,0,0,0-.206-.4,1.145,1.145,0,0,0-.588-.124.77.77,0,0,0-.628.226.724.724,0,0,0-.135.374h-.527a.907.907,0,0,1,.4-.821,1.722,1.722,0,0,1,.9-.23,1.923,1.923,0,0,1,.964.213.723.723,0,0,1,.368.669v1.84a.223.223,0,0,0,.036.135.177.177,0,0,0,.152.051c.025,0,.054,0,.085,0s.065-.008.1-.014v.4c-.088.022-.155.037-.2.044a1.569,1.569,0,0,1-.188.009.473.473,0,0,1-.424-.2.737.737,0,0,1-.1-.295,1.4,1.4,0,0,1-.5.373,1.611,1.611,0,0,1-.712.157,1.093,1.093,0,0,1-.765-.27.877.877,0,0,1-.3-.676.849.849,0,0,1,.292-.687,1.423,1.423,0,0,1,.766-.3Zm-.766,1.589a1.34,1.34,0,0,0,.578-.132.735.735,0,0,0,.471-.713V48.1a1,1,0,0,1-.267.105,2.445,2.445,0,0,1-.32.062l-.342.041a1.308,1.308,0,0,0-.461.122.467.467,0,0,0-.261.445.436.436,0,0,0,.179.368A.684.684,0,0,0,68.752,49.383Z" transform="translate(0 -5.281)"/><path class="cls-12" d="M71.47,45.646h.571v.892h.537v.439h-.537V49.06a.229.229,0,0,0,.12.226.561.561,0,0,0,.22.031l.088,0c.031,0,.068,0,.11-.008v.424a1.23,1.23,0,0,1-.2.039c-.07.007-.146.011-.228.011a.63.63,0,0,1-.537-.191.815.815,0,0,1-.142-.5V46.977h-.455v-.439h.455Z" transform="translate(0 -5.281)"/><path class="cls-12" d="M73.517,45.995a.717.717,0,0,1-.193-.025.5.5,0,0,1-.152-.069.336.336,0,0,1-.1-.1.243.243,0,0,1-.036-.132.27.27,0,0,1,.038-.14.376.376,0,0,1,.1-.112.485.485,0,0,1,.152-.076.65.65,0,0,1,.188-.026.636.636,0,0,1,.187.026.487.487,0,0,1,.151.076.39.39,0,0,1,.1.112.275.275,0,0,1,.038.14.248.248,0,0,1-.036.132.338.338,0,0,1-.1.1.492.492,0,0,1-.15.069A.7.7,0,0,1,73.517,45.995Zm-.282.556h.578v3.181h-.578Zm0,0h.578v3.181h-.578Z" transform="translate(0 -5.281)"/><path class="cls-12" d="M77.687,48.067a2.005,2.005,0,0,1-.4,1.276,1.464,1.464,0,0,1-1.228.5,1.419,1.419,0,0,1-1.1-.446,1.7,1.7,0,0,1-.408-1.2,1.847,1.847,0,0,1,.43-1.284,1.481,1.481,0,0,1,1.156-.477,1.483,1.483,0,0,1,1.548,1.623Zm-.59.016a1.529,1.529,0,0,0-.151-.729.858.858,0,0,0-.824-.442.824.824,0,0,0-.755.376,1.679,1.679,0,0,0-.236.908,1.454,1.454,0,0,0,.236.849.845.845,0,0,0,.749.341.788.788,0,0,0,.772-.405A1.923,1.923,0,0,0,77.1,48.083Z" transform="translate(0 -5.281)"/><path class="cls-12" d="M78.478,46.538h.537v.452a1.49,1.49,0,0,1,.506-.4,1.405,1.405,0,0,1,.594-.123.993.993,0,0,1,.968.475,1.59,1.59,0,0,1,.139.74v2.051h-.578V47.718a1.044,1.044,0,0,0-.091-.471.557.557,0,0,0-.546-.3,1.188,1.188,0,0,0-.33.038.853.853,0,0,0-.408.264.769.769,0,0,0-.184.325,2.078,2.078,0,0,0-.042.481v1.674h-.565Z" transform="translate(0 -5.281)"/></g><rect class="cls-11" y="48.719" width="468" height="18"/><text class="cls-13" transform="translate(133.451 61.649) rotate(-0.049) scale(1 1.05)"><tspan class="cls-14">I</tspan><tspan class="cls-15" x="2.804" y="0">C</tspan><tspan class="cls-16" x="9.989" y="0">P</tspan><tspan x="16.645" y="0">C </tspan><tspan class="cls-17" x="26.645" y="0">N</tspan><tspan class="cls-18" x="33.967" y="0">o</tspan><tspan class="cls-19" x="39.548" y="0">r</tspan><tspan class="cls-20" x="43.174" y="0">t</tspan><tspan class="cls-21" x="45.995" y="0">h</tspan><tspan class="cls-22" x="51.487" y="0">w</tspan><tspan class="cls-23" x="58.594" y="0">e</tspan><tspan class="cls-24" x="64.161" y="0">s</tspan><tspan class="cls-25" x="69.202" y="0">t</tspan><tspan x="71.901" y="0">e</tspan><tspan class="cls-26" x="77.463" y="0">r</tspan><tspan x="80.833" y="0">n </tspan><tspan class="cls-27" x="89.173" y="0">E</tspan><tspan class="cls-28" x="95.699" y="0">u</tspan><tspan class="cls-29" x="101.229" y="0">r</tspan><tspan class="cls-30" x="104.581" y="0">o</tspan><tspan class="cls-31" x="110.205" y="0">p</tspan><tspan x="115.842" y="0">e R</tspan><tspan class="cls-32" x="131.403" y="0">e</tspan><tspan class="cls-33" x="137.019" y="0">g</tspan><tspan class="cls-34" x="142.593" y="0">io</tspan><tspan class="cls-35" x="150.444" y="0">n</tspan><tspan x="156" y="0">al </tspan><tspan class="cls-36" x="166.562" y="0">C</tspan><tspan class="cls-37" x="173.88" y="0">o</tspan><tspan class="cls-38" x="179.472" y="0">n</tspan><tspan class="cls-39" x="185.015" y="0">t</tspan><tspan class="cls-23" x="187.715" y="0">e</tspan><tspan class="cls-24" x="193.282" y="0">s</tspan><tspan x="198.323" y="0">t</tspan></text><text class="cls-40" transform="translate(181.523 9.692)">ICPC Europe Regionals 2019</text></svg>